<?xml version="1.0" encoding="UTF-8" standalone="no"?>
<!-- Created with Inkscape (http://www.inkscape.org/) -->

<svg
   xmlns:dc="http://purl.org/dc/elements/1.1/"
   xmlns:cc="http://creativecommons.org/ns#"
   xmlns:rdf="http://www.w3.org/1999/02/22-rdf-syntax-ns#"
   xmlns:svg="http://www.w3.org/2000/svg"
   xmlns="http://www.w3.org/2000/svg"
   xmlns:sodipodi="http://sodipodi.sourceforge.net/DTD/sodipodi-0.dtd"
   xmlns:inkscape="http://www.inkscape.org/namespaces/inkscape"
   width="320"
   height="50"
   id="svg2"
   version="1.1"
   inkscape:version="0.48.5 r10040"
   sodipodi:docname="site-logo.svg"
   inkscape:export-filename="/Users/os/Pictures/images/expert sleepers/expert_sleepers_banner_960x160.png"
   inkscape:export-xdpi="90"
   inkscape:export-ydpi="90">
  <defs
     id="defs4" />
  <sodipodi:namedview
     id="base"
     pagecolor="#ff8d00"
     bordercolor="#666666"
     borderopacity="1.0"
     inkscape:pageopacity="0"
     inkscape:pageshadow="2"
     inkscape:zoom="1.4635417"
     inkscape:cx="376.72791"
     inkscape:cy="75.000025"
     inkscape:document-units="in"
     inkscape:current-layer="layer1"
     showgrid="false"
     inkscape:window-width="1680"
     inkscape:window-height="945"
     inkscape:window-x="0"
     inkscape:window-y="1"
     inkscape:window-maximized="1"
     units="px"
     fit-margin-top="0"
     fit-margin-left="0"
     fit-margin-right="0"
     fit-margin-bottom="0" />
  <metadata
     id="metadata7">
    <rdf:RDF>
      <cc:Work
         rdf:about="">
        <dc:format>image/svg+xml</dc:format>
        <dc:type
           rdf:resource="http://purl.org/dc/dcmitype/StillImage" />
        <dc:title />
      </cc:Work>
    </rdf:RDF>
  </metadata>
  <g
     inkscape:label="Layer 1"
     inkscape:groupmode="layer"
     id="layer1"
     transform="translate(0,-1002.3594)">
    <rect
       style="fill:none;stroke:none"
       id="rect4440"
       width="960"
       height="150"
       x="0"
       y="902.35938" />
    <g
       id="g3074"
       transform="matrix(0.34557031,0,0,0.34557031,-7.9471688,695.81515)"
       style="fill:#ff8c00;fill-opacity:1">
      <path
         id="path3964"
         d="m 36.03899,1015.2449 c -0.136851,-0.2213 5.238989,-8.4709 11.946187,-18.33254 6.7072,-9.86153 12.194914,-18.14833 12.194914,-18.41512 0,-0.30262 -4.1814,-0.53433 -11.122238,-0.61632 l -11.122239,-0.13155 0,-5.86668 0,-5.86666 18.571347,-0.24445 18.571346,-0.24443 6.208818,-9.04446 c 3.414857,-4.97448 6.222768,-9.31532 6.239805,-9.64639 0.02347,-0.45627 -2.660341,-0.63376 -11.09127,-0.73332 l -11.122239,-0.13156 0,-5.86667 0,-5.86668 18.046174,-0.12845 c 12.597929,-0.0895 18.248585,-0.29629 18.716575,-0.68468 0.93179,-0.77333 11.88176,-16.90414 11.88176,-17.50346 0,-0.3058 -4.14369,-0.53635 -11.12223,-0.61879 l -11.122236,-0.13156 0,-5.86668 0,-5.86667 23.833356,-0.12708 c 16.08445,-0.0856 23.83337,0.0368 23.83337,0.37591 0,0.2765 -5.4048,8.46301 -12.01067,18.19216 -6.60587,9.72918 -12.05087,17.92005 -12.10003,18.2019 -0.0594,0.34081 4.00567,0.59439 12.13291,0.75695 l 12.22223,0.24443 0,5.86667 0,5.86668 -19.54071,0.24445 -19.54072,0.24444 -5.974316,8.8 c -3.285872,4.84002 -5.815587,8.96103 -5.621584,9.15774 0.194008,0.19679 5.735767,0.41678 12.31501,0.48891 l 11.96229,0.13117 0,5.86665 0,5.86668 -19.622899,0.12766 -19.622901,0.12767 -6.203786,9.15219 c -3.41207,5.03376 -6.241776,9.37624 -6.288237,9.65014 -0.05449,0.3215 4.24522,0.5844 12.137774,0.7422 l 12.222229,0.2445 0,5.8667 0,5.8666 -24.77953,0.1267 c -13.628736,0.07 -24.891452,-0.054 -25.02826,-0.2757 z"
         style="fill:#ff8c00;fill-opacity:1"
         inkscape:connector-curvature="0" />
      <path
         d="m 851.48105,995.90534 c -0.39977,-0.4817 -0.518,-7.83469 -0.42651,-26.52225 l 0.12669,-25.8558 7.33333,0 7.33335,0 0.14518,3.61636 0.14499,3.6164 2.44259,-2.74055 c 3.83919,-4.30747 10.96524,-7.1046 15.31731,-6.01232 l 1.26103,0.31651 0,6.31736 c 0,3.47462 -0.16503,6.41605 -0.36667,6.53667 -0.20168,0.12066 -1.52642,-0.021 -2.9439,-0.3143 -5.05642,-1.04678 -10.66431,1.20461 -14.24779,5.72 l -1.50834,1.90056 0,16.45725 c 0,12.14821 -0.15375,16.61083 -0.58666,17.0439 -0.88117,0.88117 -13.28558,0.81058 -14.02452,-0.0798 z m -268.39903,0 c -0.40168,-0.484 -0.51775,-10.82743 -0.42655,-38.01117 l 0.12533,-37.34616 7.33335,0 7.33333,0 0.12533,37.34628 c 0.0911,27.18372 -0.0249,37.52715 -0.42657,38.01115 -0.41447,0.4994 -2.16465,0.66487 -7.03207,0.66487 -4.86746,0 -6.61763,-0.16542 -7.03209,-0.66487 z m -172.5793,0 c -0.39979,-0.4817 -0.51797,-7.83469 -0.42651,-26.52225 l 0.1267,-25.8558 7.33331,0 7.33333,0 0.14518,3.61636 0.14518,3.6164 2.44259,-2.74055 c 3.83921,-4.30747 10.96526,-7.1046 15.31729,-6.01232 l 1.26105,0.31651 0,6.31736 c 0,3.47462 -0.16484,6.41605 -0.36665,6.53667 -0.20167,0.12066 -1.52642,-0.021 -2.94389,-0.3143 -5.05645,-1.04678 -10.66431,1.20461 -14.24782,5.72 l -1.50832,1.90056 0,16.45725 c 0,12.14821 -0.15375,16.61083 -0.58666,17.0439 -0.88117,0.88117 -13.28556,0.81058 -14.0245,-0.0798 z m -184.66995,-0.0436 c -0.3411,-0.88891 -1.00953,0.18897 8.74001,-14.09415 l 8.2697,-12.11511 -8.36635,-12.72153 c -4.6015,-6.99691 -8.2375,-12.93008 -8.08002,-13.18493 0.16173,-0.26146 3.78797,-0.46333 8.32251,-0.46333 l 8.03615,0 5.21212,7.82224 c 2.86668,4.30223 5.35374,7.82225 5.52685,7.82225 0.17301,0 2.5816,-3.52002 5.35224,-7.82225 l 5.03753,-7.82224 5.8151,0 c 4.93527,0 5.81509,0.11502 5.81509,0.76049 0,0.41824 -3.435,6.14078 -7.63333,12.71678 -4.7164,7.38748 -7.54639,12.28105 -7.40582,12.80623 0.12513,0.46742 3.89012,6.41506 8.36664,13.21698 4.47654,6.80192 8.13918,12.55335 8.13918,12.78103 0,0.22768 -0.34798,0.54752 -0.77333,0.7107 -1.0208,0.39176 -14.0749,0.38397 -15.09885,-0.008 -0.43815,-0.16815 -3.22079,-3.90812 -6.18365,-8.3111 -2.96287,-4.403 -5.56646,-8.00545 -5.78583,-8.00545 -0.21933,0 -2.74934,3.40896 -5.62223,7.57541 -2.87288,4.16647 -5.55451,7.90647 -5.95915,8.31112 -1.05122,1.05126 -11.32241,1.07385 -11.72456,0.0261 z m -53.37696,0.12319 c -0.84878,-0.8488 -0.84878,-69.8446 0,-70.69342 0.84395,-0.84391 42.96055,-0.84391 43.80448,0 0.37123,0.37122 0.58668,2.23726 0.58668,5.08103 0,3.64726 -0.14576,4.5503 -0.77331,4.79111 -0.42532,0.16328 -7.02534,0.29677 -14.66668,0.29677 l -13.89336,0 0,9.28891 0,9.28889 11.20446,0 c 6.16245,0 11.55246,0.1335 11.97781,0.29676 1.14272,0.43846 1.14272,9.72356 0,10.16204 -0.42535,0.16328 -5.81536,0.29676 -11.97781,0.29676 l -11.20446,0 0,10.26668 0,10.26668 15.30223,0 c 11.2499,0 15.45761,0.15549 15.88891,0.58668 0.37034,0.37032 0.58665,2.22718 0.58665,5.03556 0,2.80837 -0.21631,4.66522 -0.58665,5.03555 -0.84462,0.84462 -45.40433,0.84462 -46.24895,0 z m 732.50314,1.02833 c -4.01661,-0.57097 -9.64717,-1.93878 -10.38891,-2.52379 -0.92303,-0.72794 -0.84909,-10.0794 0.0825,-10.43686 0.3815,-0.14635 2.30308,0.31435 4.27016,1.02395 7.73207,2.78914 15.04585,3.46635 18.83864,1.74438 1.6693,-0.75788 2.15581,-1.2929 2.63742,-2.90042 0.50163,-1.67436 0.471,-2.15367 -0.20345,-3.18301 -1.2691,-1.93688 -3.88157,-3.67031 -7.81332,-5.18429 -8.99444,-3.46345 -14.0433,-6.75133 -16.31199,-10.62255 -1.06211,-1.81234 -1.35756,-3.02553 -1.52813,-6.27517 -0.18469,-3.51992 -0.0584,-4.36291 1.00139,-6.6776 1.47172,-3.21464 4.07802,-5.83965 7.42315,-7.47626 2.94444,-1.44055 8.97591,-2.68556 13.01053,-2.68556 3.6899,0 14.00405,1.34889 15.19741,1.98753 0.79917,0.42768 0.91795,1.09247 0.91795,5.13392 0,3.68109 -0.15239,4.70103 -0.73515,4.92474 -0.40448,0.1553 -2.5495,-0.2247 -4.76677,-0.84411 -5.51408,-1.5404 -12.56577,-1.62312 -15.02876,-0.17632 -2.15052,1.26334 -2.82738,3.00928 -1.96949,5.08044 0.77559,1.87231 2.99333,3.20875 9.78904,5.89889 7.44372,2.9467 10.50806,4.72029 13.15007,7.61108 2.85204,3.12055 3.69755,5.7364 3.36358,10.40528 -0.8251,11.53154 -13.34986,17.67556 -30.9359,15.17567 z m -82.69185,-35.1527 c -0.22758,-7.1993 -4.05719,-11.11466 -9.81469,-10.03451 -2.6457,0.49632 -5.68676,3.71374 -6.6839,7.07144 -0.84257,2.83723 -0.99396,4.54918 -0.45039,5.09273 0.18547,0.18527 4.0904,0.27705 8.67779,0.20372 l 8.3407,-0.13351 z m -12.15272,34.9904 c -4.73198,-1.11271 -7.01489,-2.09616 -10.28854,-4.43217 -7.28497,-5.19851 -10.62317,-12.41035 -10.63697,-22.98043 -0.0117,-8.9989 2.30577,-15.21333 7.66365,-20.55044 3.43846,-3.4251 6.93407,-5.30024 11.80371,-6.33176 4.29812,-0.9104 7.87859,-0.91657 12.10636,-0.0206 8.07675,1.71144 12.68947,6.552 15.05408,15.79753 1.25303,4.8992 1.80456,12.99956 0.9548,14.02345 -0.53401,0.64347 -2.80844,0.74854 -16.20581,0.74854 -17.82984,0 -16.46696,-0.43938 -14.54779,4.69007 1.19803,3.20203 3.7318,6.22375 6.33026,7.54937 4.25397,2.17023 12.05005,2.16572 19.88231,-0.01 5.32966,-1.48149 5.01733,-1.72358 5.01733,3.88815 0,4.4703 -0.0858,4.91763 -1.04125,5.42896 -3.98109,2.13057 -20.47451,3.52179 -26.09214,2.20083 z m -110.06966,-34.9904 c -0.22758,-7.1993 -4.05718,-11.11466 -9.8147,-10.03451 -2.64567,0.49632 -5.68677,3.71374 -6.68389,7.07144 -0.84257,2.83723 -0.99396,4.54918 -0.45037,5.09273 0.18547,0.18527 4.09038,0.27705 8.67779,0.20372 l 8.34068,-0.13351 z m -12.15271,34.9904 c -4.73195,-1.11271 -7.01488,-2.09616 -10.28853,-4.43217 -7.28501,-5.19851 -10.62317,-12.41035 -10.63697,-22.98043 -0.0117,-8.9989 2.30575,-15.21333 7.66365,-20.55044 3.43846,-3.4251 6.93404,-5.30024 11.80367,-6.33176 4.29814,-0.9104 7.87861,-0.91657 12.1064,-0.0206 8.07673,1.71144 12.68946,6.552 15.05408,15.79753 1.25303,4.8992 1.80454,12.99956 0.9548,14.02345 -0.53401,0.64347 -2.80842,0.74854 -16.20583,0.74854 -17.82982,0 -16.46696,-0.43938 -14.54777,4.69007 1.19803,3.20203 3.73178,6.22375 6.33024,7.54937 4.25397,2.17023 12.05005,2.16572 19.8823,-0.01 5.32969,-1.48149 5.01732,-1.72358 5.01732,3.88815 0,4.4703 -0.0858,4.91763 -1.04122,5.42896 -3.9811,2.13057 -20.4745,3.52179 -26.09214,2.20083 z m -45.04735,-34.9904 c -0.22758,-7.1993 -4.05721,-11.11466 -9.81471,-10.03451 -2.64567,0.49632 -5.68676,3.71374 -6.68391,7.07144 -0.84253,2.83723 -0.99396,4.54918 -0.45035,5.09273 0.18546,0.18527 4.09039,0.27705 8.67779,0.20372 l 8.3407,-0.13351 z m -12.15272,34.9904 c -4.73195,-1.11271 -7.01487,-2.09616 -10.28855,-4.43217 -7.28497,-5.19851 -10.62317,-12.41035 -10.63695,-22.98043 -0.0117,-8.9989 2.30574,-15.21333 7.66363,-20.55044 3.43846,-3.4251 6.93406,-5.30024 11.8037,-6.33176 4.29812,-0.9104 7.8786,-0.91657 12.10637,-0.0206 8.07677,1.71144 12.68948,6.552 15.05409,15.79753 1.25301,4.8992 1.80454,12.99956 0.95481,14.02345 -0.53402,0.64347 -2.80843,0.74854 -16.20583,0.74854 -17.82985,0 -16.46696,-0.43938 -14.54779,4.69007 1.19805,3.20203 3.7318,6.22375 6.33024,7.54937 4.25398,2.17023 12.05006,2.16572 19.88232,-0.01 5.32967,-1.48149 5.01733,-1.72358 5.01733,3.88815 0,4.4703 -0.0858,4.91763 -1.04123,5.42896 -3.9811,2.13057 -20.47451,3.52179 -26.09214,2.20083 z m -163.72876,-0.081 c -3.56754,-0.86319 -5.58409,-2.08261 -8.01954,-4.84948 -3.39261,-3.85416 -3.63442,-5.27107 -3.96193,-23.21566 l -0.29001,-15.8889 -2.43501,-0.15375 c -1.3392,-0.0843 -2.60083,-0.41446 -2.80361,-0.73333 -0.20275,-0.31886 -0.36862,-2.11972 -0.36862,-4.00195 0,-1.88223 0.16581,-3.68311 0.36862,-4.00194 0.20278,-0.31885 1.46441,-0.64888 2.80361,-0.73334 l 2.43501,-0.15374 0.24445,-4.05247 c 0.25393,-4.20957 0.64792,-4.94339 2.6889,-5.00797 0.53777,-0.0175 3.35011,-0.30908 6.24965,-0.64901 3.87422,-0.4542 5.39198,-0.47337 5.72486,-0.0722 0.24909,0.30019 0.51678,2.62388 0.5948,5.16376 l 0.14187,4.61801 5.37779,0.24443 5.37777,0.24443 0,4.40002 0,4.40001 -5.37777,0.24445 -5.37779,0.24443 0,14.6667 c 0,13.11156 0.0919,14.83467 0.86571,16.25096 1.40835,2.57729 2.98893,3.30463 7.18136,3.30463 l 3.68626,0 0.14012,4.20302 c 0.16134,4.83521 0.0782,4.96398 -3.70866,5.76209 -3.41953,0.72067 -7.976,0.62854 -11.53784,-0.23334 z m -85.6744,-34.90959 c -0.22756,-7.19928 -4.0572,-11.11466 -9.8147,-10.0345 -2.64567,0.49632 -5.68678,3.71376 -6.68393,7.07144 -0.84251,2.83723 -0.99394,4.54917 -0.45033,5.0927 0.18527,0.18547 4.09039,0.27707 8.67779,0.20372 l 8.34068,-0.13331 z m -12.15271,34.99041 c -4.73197,-1.11272 -7.01489,-2.09615 -10.28855,-4.43217 -7.28499,-5.19852 -10.62317,-12.41037 -10.63695,-22.98045 -0.0117,-8.9989 2.30574,-15.21331 7.66365,-20.55043 3.43844,-3.42509 6.93406,-5.30024 11.80368,-6.33174 4.29813,-0.91041 7.8786,-0.91658 12.10637,-0.0206 8.07677,1.71146 12.68946,6.552 15.05408,15.79753 1.25302,4.89923 1.80454,12.99958 0.95482,14.02345 -0.53402,0.64349 -2.80845,0.74856 -16.20583,0.74856 -17.82985,0 -16.46696,-0.43936 -14.54779,4.69005 1.19803,3.20205 3.7318,6.22377 6.33024,7.54939 4.25398,2.17022 12.05005,2.16574 19.88232,-0.01 5.32967,-1.48148 5.01731,-1.72358 5.01731,3.88814 0,4.47031 -0.0858,4.91765 -1.04123,5.42897 -3.98108,2.13059 -20.47449,3.52182 -26.09212,2.20083 z m 165.24462,0.86075 c -4.77975,-0.58717 -10.81323,-1.75992 -11.35117,-2.20632 -0.7925,-0.65775 -0.89948,-11.96126 -0.1158,-12.22251 0.28104,-0.0938 3.00586,0.64693 6.05516,1.64578 12.34891,4.04512 21.41717,3.0395 24.18702,-2.68221 2.74625,-5.67298 0.32923,-9.53571 -9.41805,-15.05158 -12.0617,-6.82553 -17.30582,-11.19253 -19.78033,-16.47216 -1.16092,-2.4769 -1.31028,-3.38173 -1.31028,-7.9391 0,-4.79611 0.10528,-5.35767 1.56024,-8.31116 3.732,-7.57634 11.06387,-11.23756 22.49184,-11.23127 5.10847,0.006 12.92343,0.91686 16.82802,1.96825 l 1.89774,0.51099 0,5.57451 c 0,3.14064 -0.21072,5.70476 -0.4826,5.87284 -0.26545,0.16406 -2.59233,-0.37757 -5.17082,-1.20354 -5.52548,-1.76994 -11.25171,-2.66058 -14.07942,-2.18989 -6.31642,1.05141 -9.45686,5.48903 -7.19338,10.16474 1.2184,2.51686 3.7865,4.4401 12.50397,9.36419 14.49798,8.18923 18.77405,13.14956 19.21909,22.29425 0.55429,11.38999 -6.08291,19.1294 -18.58734,21.67403 -3.46119,0.70436 -13.10155,0.95025 -17.25399,0.44016 z m 224.18587,-11.44019 c 4.08383,-2.0408 6.466,-8.09989 6.52193,-16.58873 0.0707,-10.71925 -2.93623,-15.64447 -9.55109,-15.64447 -3.39285,0 -6.06347,1.34934 -9.16839,4.63231 l -2.49914,2.64252 0,10.48972 0,10.48975 1.7177,1.50816 c 4.30178,3.77703 8.6925,4.61287 12.97899,2.47074 z m -29.61106,27.77796 c -0.14635,-0.605 -0.20563,-16.71999 -0.13156,-35.81114 l 0.13487,-34.71115 7.33333,0 7.33335,0 0.14324,3.52714 0.14323,3.52711 3.03447,-3.08504 c 4.10353,-4.17196 7.13529,-5.37495 13.54562,-5.37495 5.83196,0 9.13787,1.17944 12.8721,4.59231 5.09732,4.6587 7.66126,11.80593 7.66126,21.35673 0,10.82527 -2.74888,18.59656 -8.47158,23.94985 -4.2636,3.98841 -7.70195,5.28469 -14.01732,5.28469 -5.22496,0 -7.91104,-0.77851 -11.97781,-3.47145 l -2.44446,-1.61871 -0.26718,11.34511 c -0.14694,6.2397 -0.31195,11.4 -0.36665,11.4673 -0.0547,0.067 -3.28531,0.1224 -7.17905,0.1224 -6.937,0 -7.08498,-0.022 -7.3459,-1.1 z M 318.07712,986.27154 c 4.08385,-2.0408 6.466,-8.0999 6.52193,-16.58875 0.0707,-10.71924 -2.93621,-15.64447 -9.55109,-15.64447 -3.39284,0 -6.06343,1.34935 -9.16838,4.63233 l -2.49915,2.6425 0,10.48973 0,10.48976 1.71772,1.50817 c 4.30178,3.77701 8.69248,4.61285 12.97897,2.47073 z m -29.61106,27.77796 c -0.14635,-0.605 -0.20564,-16.72 -0.13156,-35.81113 l 0.13487,-34.71118 7.33337,0 7.33333,0 0.14324,3.52715 0.14323,3.52711 3.03447,-3.08503 c 4.10355,-4.17195 7.13529,-5.37497 13.54562,-5.37497 5.83196,0 9.13787,1.17947 12.87212,4.59234 5.0973,4.65868 7.66126,11.8059 7.66126,21.3567 0,10.82528 -2.74888,18.59656 -8.4716,23.94985 -4.2636,3.98844 -7.70195,5.28471 -14.01734,5.28471 -5.22496,0 -7.91102,-0.7785 -11.97781,-3.47145 l -2.44444,-1.61872 -0.26716,11.34512 c -0.14694,6.2398 -0.31197,11.4001 -0.36667,11.4673 -0.0547,0.067 -3.28531,0.1224 -7.17908,0.1224 -6.93697,0 -7.08497,-0.022 -7.34589,-1.1 z"
         style="fill:#ff8c00;fill-opacity:1"
         id="path3149"
         inkscape:connector-curvature="0" />
    </g>
  </g>
</svg>
